# xmcd CD database file
#
# Track frame offsets:
#	150
#	20989
#	43372
#	62469
#	81392
#	102829
#	125298
#	144267
#	159922
#	175467
#
# Disc length: 2675 seconds
#
# Revision: 0
# Processed by: cddbd v1.5.1PL0 Copyright (c) Steve Scherf et al.
# Submitted via: CDex 1.51
#
DISCID=850a710a
DTITLE=Ericson Holt - The Blue Side
DYEAR=2004
DGENRE=Country
TTITLE0=Tirod Of Waitin' Around
TTITLE1=The Blue Side
TTITLE2=You've Lost
TTITLE3=I've Got Your Number
TTITLE4=Heal Her Heart
TTITLE5=Lonesome River
TTITLE6=Moonlight In Memphis
TTITLE7=The Pain Feels Good
TTITLE8=Last Call
TTITLE9=Cakewalk (Into Town)
EXTD=YEAR: 2004
EXTT0=
EXTT1=
EXTT2=
EXTT3=
EXTT4=
EXTT5=
EXTT6=
EXTT7=
EXTT8=
EXTT9=
PLAYORDER=
